<svg xmlns="http://www.w3.org/2000/svg" width="1200" height="630" viewBox="0 0 1200 630" role="img" aria-label="Lazy But I Love Data social preview">
  <defs>
    <linearGradient id="bg" x1="0" y1="0" x2="1" y2="1">
      <stop offset="0%" stop-color="#f8f5ff"/>
      <stop offset="100%" stop-color="#e8dcff"/>
    </linearGradient>
    <linearGradient id="panel" x1="0" y1="0" x2="1" y2="1">
      <stop offset="0%" stop-color="#9c7bff"/>
      <stop offset="100%" stop-color="#6247e8"/>
    </linearGradient>
  </defs>
  <rect width="1200" height="630" fill="url(#bg)"/>
  <circle cx="80" cy="84" r="220" fill="#7b61ff" opacity="0.12"/>
  <circle cx="1100" cy="520" r="260" fill="#8f62ff" opacity="0.10"/>

  <rect x="86" y="74" width="1028" height="482" rx="34" fill="#ffffff" opacity="0.84"/>
  <rect x="116" y="110" width="66" height="66" rx="18" fill="url(#panel)"/>
  <path d="M130 154l15-17 13 10 12-22" fill="none" stroke="#fff" stroke-width="6" stroke-linecap="round" stroke-linejoin="round"/>

  <text x="206" y="138" font-family="DM Sans,Arial,sans-serif" font-size="24" font-weight="700" fill="#6b5aa7" letter-spacing="2">PRIVATE TRADE JOURNAL</text>
  <text x="116" y="230" font-family="DM Sans,Arial,sans-serif" font-size="72" font-weight="700" fill="#2a1f52">Lazy But I Love Data</text>
  <text x="116" y="286" font-family="DM Sans,Arial,sans-serif" font-size="30" font-weight="500" fill="#7468a7">Confluence grading, screenshots, and insight-first forex analytics.</text>

  <rect x="116" y="334" width="296" height="160" rx="20" fill="#f5f0ff" stroke="#d6c9ff"/>
  <rect x="438" y="334" width="296" height="160" rx="20" fill="#f5f0ff" stroke="#d6c9ff"/>
  <rect x="760" y="334" width="296" height="160" rx="20" fill="#f5f0ff" stroke="#d6c9ff"/>

  <text x="144" y="378" font-family="DM Sans,Arial,sans-serif" font-size="20" font-weight="700" fill="#7b61ff">RISK DISCIPLINE</text>
  <text x="144" y="416" font-family="DM Sans,Arial,sans-serif" font-size="32" font-weight="700" fill="#2a1f52">Grade F Tracker</text>

  <text x="466" y="378" font-family="DM Sans,Arial,sans-serif" font-size="20" font-weight="700" fill="#7b61ff">EXECUTION</text>
  <text x="466" y="416" font-family="DM Sans,Arial,sans-serif" font-size="32" font-weight="700" fill="#2a1f52">Session Edge</text>

  <text x="788" y="378" font-family="DM Sans,Arial,sans-serif" font-size="20" font-weight="700" fill="#7b61ff">PROCESS</text>
  <text x="788" y="416" font-family="DM Sans,Arial,sans-serif" font-size="32" font-weight="700" fill="#2a1f52">Confluence Quality</text>
</svg>
